M48
; DRILL file {KiCad 5.1.5} date Mo 25 Nov 2019 00:52:29 CET
; FORMAT={-:-/ absolute / metric / decimal}
; #@! TF.CreationDate,2019-11-25T00:52:29+01:00
; #@! TF.GenerationSoftware,Kicad,Pcbnew,5.1.5
; #@! TF.FileFunction,Plated,1,2,PTH
FMAT,2
METRIC
T1C0.300
T2C0.500
%
G90
G05
T1
X127.7Y-59.6
X127.7Y-60.35
X128.0Y-56.6
X128.0Y-57.2
X129.6Y-61.5
X129.6Y-62.6
X129.7Y-60.6
X129.8Y-55.4
X129.8Y-56.1
X129.82Y-56.78
X129.82Y-57.48
X129.82Y-58.18
X129.82Y-58.83
X130.442Y-60.715
X131.0Y-54.5
X131.0Y-55.2
X131.0Y-55.9
X131.0Y-56.6
X131.0Y-57.3
X131.0Y-58.0
X131.0Y-58.7
X131.0Y-59.4
X131.0Y-60.1
X131.17Y-62.66
X131.48Y-50.05
X131.48Y-51.0
X131.558Y-60.715
X131.63Y-63.36
X132.07Y-52.85
X132.19Y-58.83
X132.2Y-55.4
X132.2Y-56.1
X132.2Y-56.8
X132.2Y-57.5
X132.2Y-58.2
X132.3Y-60.6
X133.09Y-53.15
X133.1Y-54.02
X134.0Y-55.27
X134.0Y-56.6
X134.42Y-53.13
X134.42Y-54.02
T2
X129.8Y-46.705
X129.8Y-47.655
X129.8Y-48.605
X132.2Y-46.705
X132.2Y-47.655
X132.2Y-48.605
X131.4Y-51.95
X130.6Y-46.71
X130.6Y-47.66
X130.6Y-48.61
X131.399Y-48.611
X130.6Y-50.05
X130.6Y-51.0
X130.6Y-51.95
T0
M30
