G04 #@! TF.GenerationSoftware,KiCad,Pcbnew,5.1.5*
G04 #@! TF.CreationDate,2019-11-25T00:52:23+01:00*
G04 #@! TF.ProjectId,pinebook-pro-3v3sys,70696e65-626f-46f6-9b2d-70726f2d3376,rev?*
G04 #@! TF.SameCoordinates,Original*
G04 #@! TF.FileFunction,Paste,Top*
G04 #@! TF.FilePolarity,Positive*
%FSLAX46Y46*%
G04 Gerber Fmt 4.6, Leading zero omitted, Abs format (unit mm)*
G04 Created by KiCad (PCBNEW 5.1.5) date 2019-11-25 00:52:23*
%MOMM*%
%LPD*%
G04 APERTURE LIST*
%ADD10C,0.100000*%
G04 APERTURE END LIST*
D10*
G36*
X130084014Y-55101180D02*
G01*
X130107797Y-55104708D01*
X130131120Y-55110550D01*
X130153757Y-55118650D01*
X130175492Y-55128929D01*
X130196115Y-55141290D01*
X130215426Y-55155612D01*
X130233241Y-55171759D01*
X130249388Y-55189574D01*
X130263710Y-55208885D01*
X130276071Y-55229508D01*
X130286350Y-55251243D01*
X130294450Y-55273880D01*
X130300292Y-55297203D01*
X130303820Y-55320986D01*
X130305000Y-55345000D01*
X130305000Y-58255000D01*
X130303820Y-58279014D01*
X130300292Y-58302797D01*
X130294450Y-58326120D01*
X130286350Y-58348757D01*
X130276071Y-58370492D01*
X130263710Y-58391115D01*
X130249388Y-58410426D01*
X130233241Y-58428241D01*
X130215426Y-58444388D01*
X130196115Y-58458710D01*
X130175492Y-58471071D01*
X130153757Y-58481350D01*
X130131120Y-58489450D01*
X130107797Y-58495292D01*
X130084014Y-58498820D01*
X130060000Y-58500000D01*
X129570000Y-58500000D01*
X129545986Y-58498820D01*
X129522203Y-58495292D01*
X129498880Y-58489450D01*
X129476243Y-58481350D01*
X129454508Y-58471071D01*
X129433885Y-58458710D01*
X129414574Y-58444388D01*
X129396759Y-58428241D01*
X129380612Y-58410426D01*
X129366290Y-58391115D01*
X129353929Y-58370492D01*
X129343650Y-58348757D01*
X129335550Y-58326120D01*
X129329708Y-58302797D01*
X129326180Y-58279014D01*
X129325000Y-58255000D01*
X129325000Y-55345000D01*
X129326180Y-55320986D01*
X129329708Y-55297203D01*
X129335550Y-55273880D01*
X129343650Y-55251243D01*
X129353929Y-55229508D01*
X129366290Y-55208885D01*
X129380612Y-55189574D01*
X129396759Y-55171759D01*
X129414574Y-55155612D01*
X129433885Y-55141290D01*
X129454508Y-55128929D01*
X129476243Y-55118650D01*
X129498880Y-55110550D01*
X129522203Y-55104708D01*
X129545986Y-55101180D01*
X129570000Y-55100000D01*
X130060000Y-55100000D01*
X130084014Y-55101180D01*
G37*
G36*
X132454014Y-55101180D02*
G01*
X132477797Y-55104708D01*
X132501120Y-55110550D01*
X132523757Y-55118650D01*
X132545492Y-55128929D01*
X132566115Y-55141290D01*
X132585426Y-55155612D01*
X132603241Y-55171759D01*
X132619388Y-55189574D01*
X132633710Y-55208885D01*
X132646071Y-55229508D01*
X132656350Y-55251243D01*
X132664450Y-55273880D01*
X132670292Y-55297203D01*
X132673820Y-55320986D01*
X132675000Y-55345000D01*
X132675000Y-58255000D01*
X132673820Y-58279014D01*
X132670292Y-58302797D01*
X132664450Y-58326120D01*
X132656350Y-58348757D01*
X132646071Y-58370492D01*
X132633710Y-58391115D01*
X132619388Y-58410426D01*
X132603241Y-58428241D01*
X132585426Y-58444388D01*
X132566115Y-58458710D01*
X132545492Y-58471071D01*
X132523757Y-58481350D01*
X132501120Y-58489450D01*
X132477797Y-58495292D01*
X132454014Y-58498820D01*
X132430000Y-58500000D01*
X131940000Y-58500000D01*
X131915986Y-58498820D01*
X131892203Y-58495292D01*
X131868880Y-58489450D01*
X131846243Y-58481350D01*
X131824508Y-58471071D01*
X131803885Y-58458710D01*
X131784574Y-58444388D01*
X131766759Y-58428241D01*
X131750612Y-58410426D01*
X131736290Y-58391115D01*
X131723929Y-58370492D01*
X131713650Y-58348757D01*
X131705550Y-58326120D01*
X131699708Y-58302797D01*
X131696180Y-58279014D01*
X131695000Y-58255000D01*
X131695000Y-55345000D01*
X131696180Y-55320986D01*
X131699708Y-55297203D01*
X131705550Y-55273880D01*
X131713650Y-55251243D01*
X131723929Y-55229508D01*
X131736290Y-55208885D01*
X131750612Y-55189574D01*
X131766759Y-55171759D01*
X131784574Y-55155612D01*
X131803885Y-55141290D01*
X131824508Y-55128929D01*
X131846243Y-55118650D01*
X131868880Y-55110550D01*
X131892203Y-55104708D01*
X131915986Y-55101180D01*
X131940000Y-55100000D01*
X132430000Y-55100000D01*
X132454014Y-55101180D01*
G37*
G36*
X132276958Y-62780710D02*
G01*
X132291276Y-62782834D01*
X132305317Y-62786351D01*
X132318946Y-62791228D01*
X132332031Y-62797417D01*
X132344447Y-62804858D01*
X132356073Y-62813481D01*
X132366798Y-62823202D01*
X132376519Y-62833927D01*
X132385142Y-62845553D01*
X132392583Y-62857969D01*
X132398772Y-62871054D01*
X132403649Y-62884683D01*
X132407166Y-62898724D01*
X132409290Y-62913042D01*
X132410000Y-62927500D01*
X132410000Y-63272500D01*
X132409290Y-63286958D01*
X132407166Y-63301276D01*
X132403649Y-63315317D01*
X132398772Y-63328946D01*
X132392583Y-63342031D01*
X132385142Y-63354447D01*
X132376519Y-63366073D01*
X132366798Y-63376798D01*
X132356073Y-63386519D01*
X132344447Y-63395142D01*
X132332031Y-63402583D01*
X132318946Y-63408772D01*
X132305317Y-63413649D01*
X132291276Y-63417166D01*
X132276958Y-63419290D01*
X132262500Y-63420000D01*
X131967500Y-63420000D01*
X131953042Y-63419290D01*
X131938724Y-63417166D01*
X131924683Y-63413649D01*
X131911054Y-63408772D01*
X131897969Y-63402583D01*
X131885553Y-63395142D01*
X131873927Y-63386519D01*
X131863202Y-63376798D01*
X131853481Y-63366073D01*
X131844858Y-63354447D01*
X131837417Y-63342031D01*
X131831228Y-63328946D01*
X131826351Y-63315317D01*
X131822834Y-63301276D01*
X131820710Y-63286958D01*
X131820000Y-63272500D01*
X131820000Y-62927500D01*
X131820710Y-62913042D01*
X131822834Y-62898724D01*
X131826351Y-62884683D01*
X131831228Y-62871054D01*
X131837417Y-62857969D01*
X131844858Y-62845553D01*
X131853481Y-62833927D01*
X131863202Y-62823202D01*
X131873927Y-62813481D01*
X131885553Y-62804858D01*
X131897969Y-62797417D01*
X131911054Y-62791228D01*
X131924683Y-62786351D01*
X131938724Y-62782834D01*
X131953042Y-62780710D01*
X131967500Y-62780000D01*
X132262500Y-62780000D01*
X132276958Y-62780710D01*
G37*
G36*
X133246958Y-62780710D02*
G01*
X133261276Y-62782834D01*
X133275317Y-62786351D01*
X133288946Y-62791228D01*
X133302031Y-62797417D01*
X133314447Y-62804858D01*
X133326073Y-62813481D01*
X133336798Y-62823202D01*
X133346519Y-62833927D01*
X133355142Y-62845553D01*
X133362583Y-62857969D01*
X133368772Y-62871054D01*
X133373649Y-62884683D01*
X133377166Y-62898724D01*
X133379290Y-62913042D01*
X133380000Y-62927500D01*
X133380000Y-63272500D01*
X133379290Y-63286958D01*
X133377166Y-63301276D01*
X133373649Y-63315317D01*
X133368772Y-63328946D01*
X133362583Y-63342031D01*
X133355142Y-63354447D01*
X133346519Y-63366073D01*
X133336798Y-63376798D01*
X133326073Y-63386519D01*
X133314447Y-63395142D01*
X133302031Y-63402583D01*
X133288946Y-63408772D01*
X133275317Y-63413649D01*
X133261276Y-63417166D01*
X133246958Y-63419290D01*
X133232500Y-63420000D01*
X132937500Y-63420000D01*
X132923042Y-63419290D01*
X132908724Y-63417166D01*
X132894683Y-63413649D01*
X132881054Y-63408772D01*
X132867969Y-63402583D01*
X132855553Y-63395142D01*
X132843927Y-63386519D01*
X132833202Y-63376798D01*
X132823481Y-63366073D01*
X132814858Y-63354447D01*
X132807417Y-63342031D01*
X132801228Y-63328946D01*
X132796351Y-63315317D01*
X132792834Y-63301276D01*
X132790710Y-63286958D01*
X132790000Y-63272500D01*
X132790000Y-62927500D01*
X132790710Y-62913042D01*
X132792834Y-62898724D01*
X132796351Y-62884683D01*
X132801228Y-62871054D01*
X132807417Y-62857969D01*
X132814858Y-62845553D01*
X132823481Y-62833927D01*
X132833202Y-62823202D01*
X132843927Y-62813481D01*
X132855553Y-62804858D01*
X132867969Y-62797417D01*
X132881054Y-62791228D01*
X132894683Y-62786351D01*
X132908724Y-62782834D01*
X132923042Y-62780710D01*
X132937500Y-62780000D01*
X133232500Y-62780000D01*
X133246958Y-62780710D01*
G37*
G36*
X133286958Y-61790710D02*
G01*
X133301276Y-61792834D01*
X133315317Y-61796351D01*
X133328946Y-61801228D01*
X133342031Y-61807417D01*
X133354447Y-61814858D01*
X133366073Y-61823481D01*
X133376798Y-61833202D01*
X133386519Y-61843927D01*
X133395142Y-61855553D01*
X133402583Y-61867969D01*
X133408772Y-61881054D01*
X133413649Y-61894683D01*
X133417166Y-61908724D01*
X133419290Y-61923042D01*
X133420000Y-61937500D01*
X133420000Y-62232500D01*
X133419290Y-62246958D01*
X133417166Y-62261276D01*
X133413649Y-62275317D01*
X133408772Y-62288946D01*
X133402583Y-62302031D01*
X133395142Y-62314447D01*
X133386519Y-62326073D01*
X133376798Y-62336798D01*
X133366073Y-62346519D01*
X133354447Y-62355142D01*
X133342031Y-62362583D01*
X133328946Y-62368772D01*
X133315317Y-62373649D01*
X133301276Y-62377166D01*
X133286958Y-62379290D01*
X133272500Y-62380000D01*
X132927500Y-62380000D01*
X132913042Y-62379290D01*
X132898724Y-62377166D01*
X132884683Y-62373649D01*
X132871054Y-62368772D01*
X132857969Y-62362583D01*
X132845553Y-62355142D01*
X132833927Y-62346519D01*
X132823202Y-62336798D01*
X132813481Y-62326073D01*
X132804858Y-62314447D01*
X132797417Y-62302031D01*
X132791228Y-62288946D01*
X132786351Y-62275317D01*
X132782834Y-62261276D01*
X132780710Y-62246958D01*
X132780000Y-62232500D01*
X132780000Y-61937500D01*
X132780710Y-61923042D01*
X132782834Y-61908724D01*
X132786351Y-61894683D01*
X132791228Y-61881054D01*
X132797417Y-61867969D01*
X132804858Y-61855553D01*
X132813481Y-61843927D01*
X132823202Y-61833202D01*
X132833927Y-61823481D01*
X132845553Y-61814858D01*
X132857969Y-61807417D01*
X132871054Y-61801228D01*
X132884683Y-61796351D01*
X132898724Y-61792834D01*
X132913042Y-61790710D01*
X132927500Y-61790000D01*
X133272500Y-61790000D01*
X133286958Y-61790710D01*
G37*
G36*
X133286958Y-60820710D02*
G01*
X133301276Y-60822834D01*
X133315317Y-60826351D01*
X133328946Y-60831228D01*
X133342031Y-60837417D01*
X133354447Y-60844858D01*
X133366073Y-60853481D01*
X133376798Y-60863202D01*
X133386519Y-60873927D01*
X133395142Y-60885553D01*
X133402583Y-60897969D01*
X133408772Y-60911054D01*
X133413649Y-60924683D01*
X133417166Y-60938724D01*
X133419290Y-60953042D01*
X133420000Y-60967500D01*
X133420000Y-61262500D01*
X133419290Y-61276958D01*
X133417166Y-61291276D01*
X133413649Y-61305317D01*
X133408772Y-61318946D01*
X133402583Y-61332031D01*
X133395142Y-61344447D01*
X133386519Y-61356073D01*
X133376798Y-61366798D01*
X133366073Y-61376519D01*
X133354447Y-61385142D01*
X133342031Y-61392583D01*
X133328946Y-61398772D01*
X133315317Y-61403649D01*
X133301276Y-61407166D01*
X133286958Y-61409290D01*
X133272500Y-61410000D01*
X132927500Y-61410000D01*
X132913042Y-61409290D01*
X132898724Y-61407166D01*
X132884683Y-61403649D01*
X132871054Y-61398772D01*
X132857969Y-61392583D01*
X132845553Y-61385142D01*
X132833927Y-61376519D01*
X132823202Y-61366798D01*
X132813481Y-61356073D01*
X132804858Y-61344447D01*
X132797417Y-61332031D01*
X132791228Y-61318946D01*
X132786351Y-61305317D01*
X132782834Y-61291276D01*
X132780710Y-61276958D01*
X132780000Y-61262500D01*
X132780000Y-60967500D01*
X132780710Y-60953042D01*
X132782834Y-60938724D01*
X132786351Y-60924683D01*
X132791228Y-60911054D01*
X132797417Y-60897969D01*
X132804858Y-60885553D01*
X132813481Y-60873927D01*
X132823202Y-60863202D01*
X132833927Y-60853481D01*
X132845553Y-60844858D01*
X132857969Y-60837417D01*
X132871054Y-60831228D01*
X132884683Y-60826351D01*
X132898724Y-60822834D01*
X132913042Y-60820710D01*
X132927500Y-60820000D01*
X133272500Y-60820000D01*
X133286958Y-60820710D01*
G37*
G36*
X131952691Y-59326053D02*
G01*
X131973926Y-59329203D01*
X131994750Y-59334419D01*
X132014962Y-59341651D01*
X132034368Y-59350830D01*
X132052781Y-59361866D01*
X132070024Y-59374654D01*
X132085930Y-59389070D01*
X132100346Y-59404976D01*
X132113134Y-59422219D01*
X132124170Y-59440632D01*
X132133349Y-59460038D01*
X132140581Y-59480250D01*
X132145797Y-59501074D01*
X132148947Y-59522309D01*
X132150000Y-59543750D01*
X132150000Y-60056250D01*
X132148947Y-60077691D01*
X132145797Y-60098926D01*
X132140581Y-60119750D01*
X132133349Y-60139962D01*
X132124170Y-60159368D01*
X132113134Y-60177781D01*
X132100346Y-60195024D01*
X132085930Y-60210930D01*
X132070024Y-60225346D01*
X132052781Y-60238134D01*
X132034368Y-60249170D01*
X132014962Y-60258349D01*
X131994750Y-60265581D01*
X131973926Y-60270797D01*
X131952691Y-60273947D01*
X131931250Y-60275000D01*
X131493750Y-60275000D01*
X131472309Y-60273947D01*
X131451074Y-60270797D01*
X131430250Y-60265581D01*
X131410038Y-60258349D01*
X131390632Y-60249170D01*
X131372219Y-60238134D01*
X131354976Y-60225346D01*
X131339070Y-60210930D01*
X131324654Y-60195024D01*
X131311866Y-60177781D01*
X131300830Y-60159368D01*
X131291651Y-60139962D01*
X131284419Y-60119750D01*
X131279203Y-60098926D01*
X131276053Y-60077691D01*
X131275000Y-60056250D01*
X131275000Y-59543750D01*
X131276053Y-59522309D01*
X131279203Y-59501074D01*
X131284419Y-59480250D01*
X131291651Y-59460038D01*
X131300830Y-59440632D01*
X131311866Y-59422219D01*
X131324654Y-59404976D01*
X131339070Y-59389070D01*
X131354976Y-59374654D01*
X131372219Y-59361866D01*
X131390632Y-59350830D01*
X131410038Y-59341651D01*
X131430250Y-59334419D01*
X131451074Y-59329203D01*
X131472309Y-59326053D01*
X131493750Y-59325000D01*
X131931250Y-59325000D01*
X131952691Y-59326053D01*
G37*
G36*
X133527691Y-59326053D02*
G01*
X133548926Y-59329203D01*
X133569750Y-59334419D01*
X133589962Y-59341651D01*
X133609368Y-59350830D01*
X133627781Y-59361866D01*
X133645024Y-59374654D01*
X133660930Y-59389070D01*
X133675346Y-59404976D01*
X133688134Y-59422219D01*
X133699170Y-59440632D01*
X133708349Y-59460038D01*
X133715581Y-59480250D01*
X133720797Y-59501074D01*
X133723947Y-59522309D01*
X133725000Y-59543750D01*
X133725000Y-60056250D01*
X133723947Y-60077691D01*
X133720797Y-60098926D01*
X133715581Y-60119750D01*
X133708349Y-60139962D01*
X133699170Y-60159368D01*
X133688134Y-60177781D01*
X133675346Y-60195024D01*
X133660930Y-60210930D01*
X133645024Y-60225346D01*
X133627781Y-60238134D01*
X133609368Y-60249170D01*
X133589962Y-60258349D01*
X133569750Y-60265581D01*
X133548926Y-60270797D01*
X133527691Y-60273947D01*
X133506250Y-60275000D01*
X133068750Y-60275000D01*
X133047309Y-60273947D01*
X133026074Y-60270797D01*
X133005250Y-60265581D01*
X132985038Y-60258349D01*
X132965632Y-60249170D01*
X132947219Y-60238134D01*
X132929976Y-60225346D01*
X132914070Y-60210930D01*
X132899654Y-60195024D01*
X132886866Y-60177781D01*
X132875830Y-60159368D01*
X132866651Y-60139962D01*
X132859419Y-60119750D01*
X132854203Y-60098926D01*
X132851053Y-60077691D01*
X132850000Y-60056250D01*
X132850000Y-59543750D01*
X132851053Y-59522309D01*
X132854203Y-59501074D01*
X132859419Y-59480250D01*
X132866651Y-59460038D01*
X132875830Y-59440632D01*
X132886866Y-59422219D01*
X132899654Y-59404976D01*
X132914070Y-59389070D01*
X132929976Y-59374654D01*
X132947219Y-59361866D01*
X132965632Y-59350830D01*
X132985038Y-59341651D01*
X133005250Y-59334419D01*
X133026074Y-59329203D01*
X133047309Y-59326053D01*
X133068750Y-59325000D01*
X133506250Y-59325000D01*
X133527691Y-59326053D01*
G37*
G36*
X134257691Y-56176053D02*
G01*
X134278926Y-56179203D01*
X134299750Y-56184419D01*
X134319962Y-56191651D01*
X134339368Y-56200830D01*
X134357781Y-56211866D01*
X134375024Y-56224654D01*
X134390930Y-56239070D01*
X134405346Y-56254976D01*
X134418134Y-56272219D01*
X134429170Y-56290632D01*
X134438349Y-56310038D01*
X134445581Y-56330250D01*
X134450797Y-56351074D01*
X134453947Y-56372309D01*
X134455000Y-56393750D01*
X134455000Y-56831250D01*
X134453947Y-56852691D01*
X134450797Y-56873926D01*
X134445581Y-56894750D01*
X134438349Y-56914962D01*
X134429170Y-56934368D01*
X134418134Y-56952781D01*
X134405346Y-56970024D01*
X134390930Y-56985930D01*
X134375024Y-57000346D01*
X134357781Y-57013134D01*
X134339368Y-57024170D01*
X134319962Y-57033349D01*
X134299750Y-57040581D01*
X134278926Y-57045797D01*
X134257691Y-57048947D01*
X134236250Y-57050000D01*
X133723750Y-57050000D01*
X133702309Y-57048947D01*
X133681074Y-57045797D01*
X133660250Y-57040581D01*
X133640038Y-57033349D01*
X133620632Y-57024170D01*
X133602219Y-57013134D01*
X133584976Y-57000346D01*
X133569070Y-56985930D01*
X133554654Y-56970024D01*
X133541866Y-56952781D01*
X133530830Y-56934368D01*
X133521651Y-56914962D01*
X133514419Y-56894750D01*
X133509203Y-56873926D01*
X133506053Y-56852691D01*
X133505000Y-56831250D01*
X133505000Y-56393750D01*
X133506053Y-56372309D01*
X133509203Y-56351074D01*
X133514419Y-56330250D01*
X133521651Y-56310038D01*
X133530830Y-56290632D01*
X133541866Y-56272219D01*
X133554654Y-56254976D01*
X133569070Y-56239070D01*
X133584976Y-56224654D01*
X133602219Y-56211866D01*
X133620632Y-56200830D01*
X133640038Y-56191651D01*
X133660250Y-56184419D01*
X133681074Y-56179203D01*
X133702309Y-56176053D01*
X133723750Y-56175000D01*
X134236250Y-56175000D01*
X134257691Y-56176053D01*
G37*
G36*
X134257691Y-57751053D02*
G01*
X134278926Y-57754203D01*
X134299750Y-57759419D01*
X134319962Y-57766651D01*
X134339368Y-57775830D01*
X134357781Y-57786866D01*
X134375024Y-57799654D01*
X134390930Y-57814070D01*
X134405346Y-57829976D01*
X134418134Y-57847219D01*
X134429170Y-57865632D01*
X134438349Y-57885038D01*
X134445581Y-57905250D01*
X134450797Y-57926074D01*
X134453947Y-57947309D01*
X134455000Y-57968750D01*
X134455000Y-58406250D01*
X134453947Y-58427691D01*
X134450797Y-58448926D01*
X134445581Y-58469750D01*
X134438349Y-58489962D01*
X134429170Y-58509368D01*
X134418134Y-58527781D01*
X134405346Y-58545024D01*
X134390930Y-58560930D01*
X134375024Y-58575346D01*
X134357781Y-58588134D01*
X134339368Y-58599170D01*
X134319962Y-58608349D01*
X134299750Y-58615581D01*
X134278926Y-58620797D01*
X134257691Y-58623947D01*
X134236250Y-58625000D01*
X133723750Y-58625000D01*
X133702309Y-58623947D01*
X133681074Y-58620797D01*
X133660250Y-58615581D01*
X133640038Y-58608349D01*
X133620632Y-58599170D01*
X133602219Y-58588134D01*
X133584976Y-58575346D01*
X133569070Y-58560930D01*
X133554654Y-58545024D01*
X133541866Y-58527781D01*
X133530830Y-58509368D01*
X133521651Y-58489962D01*
X133514419Y-58469750D01*
X133509203Y-58448926D01*
X133506053Y-58427691D01*
X133505000Y-58406250D01*
X133505000Y-57968750D01*
X133506053Y-57947309D01*
X133509203Y-57926074D01*
X133514419Y-57905250D01*
X133521651Y-57885038D01*
X133530830Y-57865632D01*
X133541866Y-57847219D01*
X133554654Y-57829976D01*
X133569070Y-57814070D01*
X133584976Y-57799654D01*
X133602219Y-57786866D01*
X133620632Y-57775830D01*
X133640038Y-57766651D01*
X133660250Y-57759419D01*
X133681074Y-57754203D01*
X133702309Y-57751053D01*
X133723750Y-57750000D01*
X134236250Y-57750000D01*
X134257691Y-57751053D01*
G37*
G36*
X130527691Y-59326053D02*
G01*
X130548926Y-59329203D01*
X130569750Y-59334419D01*
X130589962Y-59341651D01*
X130609368Y-59350830D01*
X130627781Y-59361866D01*
X130645024Y-59374654D01*
X130660930Y-59389070D01*
X130675346Y-59404976D01*
X130688134Y-59422219D01*
X130699170Y-59440632D01*
X130708349Y-59460038D01*
X130715581Y-59480250D01*
X130720797Y-59501074D01*
X130723947Y-59522309D01*
X130725000Y-59543750D01*
X130725000Y-60056250D01*
X130723947Y-60077691D01*
X130720797Y-60098926D01*
X130715581Y-60119750D01*
X130708349Y-60139962D01*
X130699170Y-60159368D01*
X130688134Y-60177781D01*
X130675346Y-60195024D01*
X130660930Y-60210930D01*
X130645024Y-60225346D01*
X130627781Y-60238134D01*
X130609368Y-60249170D01*
X130589962Y-60258349D01*
X130569750Y-60265581D01*
X130548926Y-60270797D01*
X130527691Y-60273947D01*
X130506250Y-60275000D01*
X130068750Y-60275000D01*
X130047309Y-60273947D01*
X130026074Y-60270797D01*
X130005250Y-60265581D01*
X129985038Y-60258349D01*
X129965632Y-60249170D01*
X129947219Y-60238134D01*
X129929976Y-60225346D01*
X129914070Y-60210930D01*
X129899654Y-60195024D01*
X129886866Y-60177781D01*
X129875830Y-60159368D01*
X129866651Y-60139962D01*
X129859419Y-60119750D01*
X129854203Y-60098926D01*
X129851053Y-60077691D01*
X129850000Y-60056250D01*
X129850000Y-59543750D01*
X129851053Y-59522309D01*
X129854203Y-59501074D01*
X129859419Y-59480250D01*
X129866651Y-59460038D01*
X129875830Y-59440632D01*
X129886866Y-59422219D01*
X129899654Y-59404976D01*
X129914070Y-59389070D01*
X129929976Y-59374654D01*
X129947219Y-59361866D01*
X129965632Y-59350830D01*
X129985038Y-59341651D01*
X130005250Y-59334419D01*
X130026074Y-59329203D01*
X130047309Y-59326053D01*
X130068750Y-59325000D01*
X130506250Y-59325000D01*
X130527691Y-59326053D01*
G37*
G36*
X128952691Y-59326053D02*
G01*
X128973926Y-59329203D01*
X128994750Y-59334419D01*
X129014962Y-59341651D01*
X129034368Y-59350830D01*
X129052781Y-59361866D01*
X129070024Y-59374654D01*
X129085930Y-59389070D01*
X129100346Y-59404976D01*
X129113134Y-59422219D01*
X129124170Y-59440632D01*
X129133349Y-59460038D01*
X129140581Y-59480250D01*
X129145797Y-59501074D01*
X129148947Y-59522309D01*
X129150000Y-59543750D01*
X129150000Y-60056250D01*
X129148947Y-60077691D01*
X129145797Y-60098926D01*
X129140581Y-60119750D01*
X129133349Y-60139962D01*
X129124170Y-60159368D01*
X129113134Y-60177781D01*
X129100346Y-60195024D01*
X129085930Y-60210930D01*
X129070024Y-60225346D01*
X129052781Y-60238134D01*
X129034368Y-60249170D01*
X129014962Y-60258349D01*
X128994750Y-60265581D01*
X128973926Y-60270797D01*
X128952691Y-60273947D01*
X128931250Y-60275000D01*
X128493750Y-60275000D01*
X128472309Y-60273947D01*
X128451074Y-60270797D01*
X128430250Y-60265581D01*
X128410038Y-60258349D01*
X128390632Y-60249170D01*
X128372219Y-60238134D01*
X128354976Y-60225346D01*
X128339070Y-60210930D01*
X128324654Y-60195024D01*
X128311866Y-60177781D01*
X128300830Y-60159368D01*
X128291651Y-60139962D01*
X128284419Y-60119750D01*
X128279203Y-60098926D01*
X128276053Y-60077691D01*
X128275000Y-60056250D01*
X128275000Y-59543750D01*
X128276053Y-59522309D01*
X128279203Y-59501074D01*
X128284419Y-59480250D01*
X128291651Y-59460038D01*
X128300830Y-59440632D01*
X128311866Y-59422219D01*
X128324654Y-59404976D01*
X128339070Y-59389070D01*
X128354976Y-59374654D01*
X128372219Y-59361866D01*
X128390632Y-59350830D01*
X128410038Y-59341651D01*
X128430250Y-59334419D01*
X128451074Y-59329203D01*
X128472309Y-59326053D01*
X128493750Y-59325000D01*
X128931250Y-59325000D01*
X128952691Y-59326053D01*
G37*
G36*
X128277691Y-56176053D02*
G01*
X128298926Y-56179203D01*
X128319750Y-56184419D01*
X128339962Y-56191651D01*
X128359368Y-56200830D01*
X128377781Y-56211866D01*
X128395024Y-56224654D01*
X128410930Y-56239070D01*
X128425346Y-56254976D01*
X128438134Y-56272219D01*
X128449170Y-56290632D01*
X128458349Y-56310038D01*
X128465581Y-56330250D01*
X128470797Y-56351074D01*
X128473947Y-56372309D01*
X128475000Y-56393750D01*
X128475000Y-56831250D01*
X128473947Y-56852691D01*
X128470797Y-56873926D01*
X128465581Y-56894750D01*
X128458349Y-56914962D01*
X128449170Y-56934368D01*
X128438134Y-56952781D01*
X128425346Y-56970024D01*
X128410930Y-56985930D01*
X128395024Y-57000346D01*
X128377781Y-57013134D01*
X128359368Y-57024170D01*
X128339962Y-57033349D01*
X128319750Y-57040581D01*
X128298926Y-57045797D01*
X128277691Y-57048947D01*
X128256250Y-57050000D01*
X127743750Y-57050000D01*
X127722309Y-57048947D01*
X127701074Y-57045797D01*
X127680250Y-57040581D01*
X127660038Y-57033349D01*
X127640632Y-57024170D01*
X127622219Y-57013134D01*
X127604976Y-57000346D01*
X127589070Y-56985930D01*
X127574654Y-56970024D01*
X127561866Y-56952781D01*
X127550830Y-56934368D01*
X127541651Y-56914962D01*
X127534419Y-56894750D01*
X127529203Y-56873926D01*
X127526053Y-56852691D01*
X127525000Y-56831250D01*
X127525000Y-56393750D01*
X127526053Y-56372309D01*
X127529203Y-56351074D01*
X127534419Y-56330250D01*
X127541651Y-56310038D01*
X127550830Y-56290632D01*
X127561866Y-56272219D01*
X127574654Y-56254976D01*
X127589070Y-56239070D01*
X127604976Y-56224654D01*
X127622219Y-56211866D01*
X127640632Y-56200830D01*
X127660038Y-56191651D01*
X127680250Y-56184419D01*
X127701074Y-56179203D01*
X127722309Y-56176053D01*
X127743750Y-56175000D01*
X128256250Y-56175000D01*
X128277691Y-56176053D01*
G37*
G36*
X128277691Y-57751053D02*
G01*
X128298926Y-57754203D01*
X128319750Y-57759419D01*
X128339962Y-57766651D01*
X128359368Y-57775830D01*
X128377781Y-57786866D01*
X128395024Y-57799654D01*
X128410930Y-57814070D01*
X128425346Y-57829976D01*
X128438134Y-57847219D01*
X128449170Y-57865632D01*
X128458349Y-57885038D01*
X128465581Y-57905250D01*
X128470797Y-57926074D01*
X128473947Y-57947309D01*
X128475000Y-57968750D01*
X128475000Y-58406250D01*
X128473947Y-58427691D01*
X128470797Y-58448926D01*
X128465581Y-58469750D01*
X128458349Y-58489962D01*
X128449170Y-58509368D01*
X128438134Y-58527781D01*
X128425346Y-58545024D01*
X128410930Y-58560930D01*
X128395024Y-58575346D01*
X128377781Y-58588134D01*
X128359368Y-58599170D01*
X128339962Y-58608349D01*
X128319750Y-58615581D01*
X128298926Y-58620797D01*
X128277691Y-58623947D01*
X128256250Y-58625000D01*
X127743750Y-58625000D01*
X127722309Y-58623947D01*
X127701074Y-58620797D01*
X127680250Y-58615581D01*
X127660038Y-58608349D01*
X127640632Y-58599170D01*
X127622219Y-58588134D01*
X127604976Y-58575346D01*
X127589070Y-58560930D01*
X127574654Y-58545024D01*
X127561866Y-58527781D01*
X127550830Y-58509368D01*
X127541651Y-58489962D01*
X127534419Y-58469750D01*
X127529203Y-58448926D01*
X127526053Y-58427691D01*
X127525000Y-58406250D01*
X127525000Y-57968750D01*
X127526053Y-57947309D01*
X127529203Y-57926074D01*
X127534419Y-57905250D01*
X127541651Y-57885038D01*
X127550830Y-57865632D01*
X127561866Y-57847219D01*
X127574654Y-57829976D01*
X127589070Y-57814070D01*
X127604976Y-57799654D01*
X127622219Y-57786866D01*
X127640632Y-57775830D01*
X127660038Y-57766651D01*
X127680250Y-57759419D01*
X127701074Y-57754203D01*
X127722309Y-57751053D01*
X127743750Y-57750000D01*
X128256250Y-57750000D01*
X128277691Y-57751053D01*
G37*
M02*
