G04 #@! TF.GenerationSoftware,KiCad,Pcbnew,5.1.5*
G04 #@! TF.CreationDate,2019-11-25T00:52:23+01:00*
G04 #@! TF.ProjectId,pinebook-pro-3v3sys,70696e65-626f-46f6-9b2d-70726f2d3376,rev?*
G04 #@! TF.SameCoordinates,Original*
G04 #@! TF.FileFunction,Legend,Top*
G04 #@! TF.FilePolarity,Positive*
%FSLAX46Y46*%
G04 Gerber Fmt 4.6, Leading zero omitted, Abs format (unit mm)*
G04 Created by KiCad (PCBNEW 5.1.5) date 2019-11-25 00:52:23*
%MOMM*%
%LPD*%
G04 APERTURE LIST*
%ADD10C,0.150000*%
%ADD11C,0.120000*%
%ADD12C,0.050000*%
G04 APERTURE END LIST*
D10*
X133745714Y-63940952D02*
X133745714Y-63560000D01*
X133412380Y-63798095D02*
X134269523Y-63798095D01*
X134364761Y-63750476D01*
X134412380Y-63655238D01*
X134412380Y-63560000D01*
X134364761Y-63274285D02*
X134412380Y-63179047D01*
X134412380Y-62988571D01*
X134364761Y-62893333D01*
X134269523Y-62845714D01*
X134221904Y-62845714D01*
X134126666Y-62893333D01*
X134079047Y-62988571D01*
X134079047Y-63131428D01*
X134031428Y-63226666D01*
X133936190Y-63274285D01*
X133888571Y-63274285D01*
X133793333Y-63226666D01*
X133745714Y-63131428D01*
X133745714Y-62988571D01*
X133793333Y-62893333D01*
X133745714Y-62512380D02*
X134412380Y-62274285D01*
X133745714Y-62036190D02*
X134412380Y-62274285D01*
X134650476Y-62369523D01*
X134698095Y-62417142D01*
X134745714Y-62512380D01*
X134364761Y-61702857D02*
X134412380Y-61607619D01*
X134412380Y-61417142D01*
X134364761Y-61321904D01*
X134269523Y-61274285D01*
X134221904Y-61274285D01*
X134126666Y-61321904D01*
X134079047Y-61417142D01*
X134079047Y-61560000D01*
X134031428Y-61655238D01*
X133936190Y-61702857D01*
X133888571Y-61702857D01*
X133793333Y-61655238D01*
X133745714Y-61560000D01*
X133745714Y-61417142D01*
X133793333Y-61321904D01*
X131159523Y-52590000D02*
X131083333Y-52551904D01*
X130969047Y-52551904D01*
X130854761Y-52590000D01*
X130778571Y-52666190D01*
X130740476Y-52742380D01*
X130702380Y-52894761D01*
X130702380Y-53009047D01*
X130740476Y-53161428D01*
X130778571Y-53237619D01*
X130854761Y-53313809D01*
X130969047Y-53351904D01*
X131045238Y-53351904D01*
X131159523Y-53313809D01*
X131197619Y-53275714D01*
X131197619Y-53009047D01*
X131045238Y-53009047D01*
X127529523Y-63552857D02*
X127796190Y-63552857D01*
X127910476Y-63971904D02*
X127529523Y-63971904D01*
X127529523Y-63171904D01*
X127910476Y-63171904D01*
X128253333Y-63971904D02*
X128253333Y-63171904D01*
X128710476Y-63971904D01*
X128710476Y-63171904D01*
X133864761Y-54842380D02*
X134055238Y-54842380D01*
X134150476Y-54890000D01*
X134245714Y-54985238D01*
X134293333Y-55175714D01*
X134293333Y-55509047D01*
X134245714Y-55699523D01*
X134150476Y-55794761D01*
X134055238Y-55842380D01*
X133864761Y-55842380D01*
X133769523Y-55794761D01*
X133674285Y-55699523D01*
X133626666Y-55509047D01*
X133626666Y-55175714D01*
X133674285Y-54985238D01*
X133769523Y-54890000D01*
X133864761Y-54842380D01*
X127526190Y-55742380D02*
X127526190Y-54742380D01*
X128002380Y-55742380D02*
X128002380Y-54742380D01*
X128573809Y-55742380D01*
X128573809Y-54742380D01*
D11*
X132660000Y-53850000D02*
G75*
G03X132660000Y-53850000I-700000J0D01*
G01*
X130740000Y-53850000D02*
G75*
G03X130740000Y-53850000I-700000J0D01*
G01*
X134500000Y-53900000D02*
G75*
G03X134500000Y-53900000I-700000J0D01*
G01*
X128900000Y-53800000D02*
G75*
G03X128900000Y-53800000I-700000J0D01*
G01*
X128900000Y-55100000D02*
X128900000Y-58500000D01*
X133100000Y-58500000D02*
X133100000Y-55100000D01*
X130000000Y-58900000D02*
X132000000Y-58900000D01*
X130000000Y-54700000D02*
X132000000Y-54700000D01*
X129800000Y-62400000D02*
X130300000Y-62400000D01*
X132200000Y-62400000D02*
X131700000Y-62400000D01*
X132200000Y-61900000D02*
X132200000Y-62400000D01*
X132200000Y-60800000D02*
X131700000Y-60800000D01*
X132200000Y-61300000D02*
X132200000Y-60800000D01*
X129800000Y-60800000D02*
X130300000Y-60800000D01*
X129800000Y-61300000D02*
X129800000Y-60800000D01*
X128800000Y-62300000D02*
G75*
G03X128800000Y-62300000I-700000J0D01*
G01*
D12*
X131400000Y-63900000D02*
X129200000Y-63900000D01*
X131400000Y-62700000D02*
X131400000Y-63900000D01*
X129200000Y-63900000D02*
X129200000Y-62700000D01*
X129200000Y-62700000D02*
X131400000Y-62700000D01*
D11*
X132662779Y-59290000D02*
X132337221Y-59290000D01*
X132662779Y-60310000D02*
X132337221Y-60310000D01*
X134490000Y-57562779D02*
X134490000Y-57237221D01*
X133470000Y-57562779D02*
X133470000Y-57237221D01*
X129337221Y-60310000D02*
X129662779Y-60310000D01*
X129337221Y-59290000D02*
X129662779Y-59290000D01*
X128510000Y-57562779D02*
X128510000Y-57237221D01*
X127490000Y-57562779D02*
X127490000Y-57237221D01*
M02*
